<?xml version="1.0" encoding="utf-8"?>
<!-- Generator: Adobe Illustrator 21.0.0, SVG Export Plug-In . SVG Version: 6.00 Build 0)  -->
<svg version="1.0" id="Layer_1" xmlns="http://www.w3.org/2000/svg" xmlns:xlink="http://www.w3.org/1999/xlink" x="0px" y="0px"
	 viewBox="0 0 410 55" style="enable-background:new 0 0 410 55;" xml:space="preserve">
<style type="text/css">
	.st0{fill:#FFFFFF;}
</style>
<g>
	<path class="st0" d="M1.8,52.2V2.8h21.8v3.8H5.9v17.8h16v3.8h-16v20.2h18v3.8H1.8z"/>
	<path class="st0" d="M29.8,2.8h4.7L44,22.6l9.8-19.9h4.6l-11.9,24L59,52.2h-4.6L44,30.7L33.7,52.2h-4.5l12.4-25.5L29.8,2.8z"/>
	<path class="st0" d="M67.1,52.2V2.8h8.5c10.8,0,16.2,2.8,16.2,12.9c0,4.8-1.1,8.4-3.9,10.8c-3.1,2.7-8.4,3.4-10.3,3.4h-6.4v22.4
		H67.1z M71.3,26h3.6c7.4,0,12.8-1.1,12.8-10c0-7.5-3.7-9.4-10.3-9.5h-6.1V26z"/>
	<path class="st0" d="M101.2,52.2V2.8h4.2v45.7h17.8v3.8H101.2z"/>
	<path class="st0" d="M130.7,26.1c0-10.2,1.3-24.5,14.1-24.5c14.1,0,14.2,16.2,14.2,27c0,10.8-0.8,24.9-14.3,24.9
		C130.8,53.4,130.7,36.6,130.7,26.1z M154.9,27.6c0-7.3,0.1-22.2-10.2-22.2c-9.7,0-9.8,14.6-9.8,21.7c0,7.6-0.4,22.5,10.2,22.5
		C155.3,49.6,154.9,34.6,154.9,27.6z"/>
	<path class="st0" d="M173,29v23.3h-4.2V2.8h9.3c8.8,0,14.8,2.6,14.8,12.7c0,4.8-2,10.5-7.1,11.6v0.1c5.6,1.5,6.4,5.9,6.4,12.1
		c0.1,2.4-0.2,11.1,2.2,12.4v0.6H190c-1.8-4.2-1.7-12.6-1.9-16.2c-0.4-6.6-5.3-7.1-10.7-7.1H173z M173,25.1h7.3
		c1.4,0,8.5-0.5,8.5-9.4c0-7.3-3.2-9.2-9.8-9.2h-6V25.1z"/>
	<path class="st0" d="M203.3,52.2V2.8h21.8v3.8h-17.6v17.8h16v3.8h-16v20.2h18v3.8H203.3z"/>
	<path class="st0" d="M249.5,23.5c0.4-12.6,1.3-22,15.7-22c7.7,0.1,13,2.1,15.1,10.7c0.4,2,0.4,4,0.4,6h-9c-0.1-5-0.4-9-6.5-9.2
		c-7.1,0-6.5,8.6-6.5,12.5v13.7c0,4.1,0.3,10.8,6.5,10.8c5.1,0,6.8-5.6,6.6-13.1h-6.2v-7.3h14.9v26.6h-6.7v-5.7h-0.1
		c-1.8,5.1-5.2,6.6-8.5,6.9c-14.8,0-15.7-9.6-15.7-22.8V23.5z"/>
	<path class="st0" d="M291.7,52.2V2.8h9v49.5H291.7z"/>
	<path class="st0" d="M311.9,52.2V2.8h25.5V10h-16.5v12.5h15.5v7.3h-15.5v22.4H311.9z"/>
	<path class="st0" d="M344.2,2.8h30V10h-10.5v42.2h-9V10h-10.5V2.8z"/>
	<path class="st0" d="M398.4,17.8c0.1-4.4-0.3-8.8-5.3-8.8c-3,0-4.9,1.3-4.9,4.6c0,3.8,2.3,5.2,5.1,7.1c3,1.9,8.4,5.6,10.9,8.1
		c3.1,3.1,4,6.1,4,10.4c0,9.4-6,14.3-14.8,14.3c-10.8,0-14.6-6.2-14.6-15v-3.6h9v2.9c-0.2,4.8,1.2,8.3,5.6,8.3c3.8,0,5.6-2,5.6-5.8
		c0-2.9-1.3-4.9-3.6-6.5c-4.7-3.8-10.5-6.5-14.2-11.4c-1.5-2.2-2.3-4.9-2.3-7.6c0-8.4,4.6-13.1,14.1-13.1c14.3,0,13.9,11.4,14,16.2
		H398.4z"/>
</g>
</svg>
